<svg xmlns="http://www.w3.org/2000/svg" viewBox="0 0 160 160" width="160" height="160">
  <!-- hand-drawn browser window -->
  <rect x="14" y="26" width="132" height="112" rx="14" fill="#fffdf9" stroke="#211d18" stroke-width="4"/>
  <line x1="14" y1="52" x2="146" y2="52" stroke="#211d18" stroke-width="3" opacity="0.9"/>
  <circle cx="32" cy="39" r="4.5" fill="#211d18" opacity="0.18"/>
  <circle cx="48" cy="39" r="4.5" fill="#211d18" opacity="0.18"/>
  <circle cx="64" cy="39" r="4.5" fill="#e8503a" opacity="0.75"/>
  <!-- droplet -->
  <g transform="translate(80, 96)">
    <path d="M0 -34 C0 -34 -22 -8.5 -22 6 a22 22 0 0 0 44 0 C22 -8.5 0 -34 0 -34 Z" fill="#e8503a" stroke="#211d18" stroke-width="4" stroke-linejoin="round"/>
    <path d="M-10 7 a11 11 0 0 0 8.5 11" fill="none" stroke="#fff" stroke-width="4" stroke-linecap="round"/>
  </g>
  <!-- doodle star -->
  <path d="M138 8 L141 17 L151 17 L143 23 L146 33 L138 27 L130 33 L133 23 L125 17 L135 17 Z" fill="#fff" stroke="#211d18" stroke-width="3" stroke-linejoin="round"/>
</svg>
